<!-- xlog diagram: architecture overview (dark). Source of truth: docs ARCHITECTURE.md reasoning stack + crate structure. One shared frontend fans into four paradigm IRs; all execute on the GPU kernel provider. -->
<svg xmlns="http://www.w3.org/2000/svg" viewBox="0 0 900 400" font-family="Inter, system-ui, sans-serif">
  <rect width="900" height="400" fill="#0E0E16"/>
  <defs>
    <marker id="aad" viewBox="0 0 10 10" refX="8" refY="5" markerWidth="7" markerHeight="7" orient="auto-start-reverse">
      <path d="M0,0 L10,5 L0,10 z" fill="#9B98B4"/>
    </marker>
  </defs>

  <text x="28" y="38" font-size="16" font-weight="600" fill="#E7E6F0">XLOG architecture</text>
  <text x="28" y="56" font-size="11" fill="#9B98B4">One typed frontend fans into four reasoning paradigms; all of them execute on a shared GPU kernel provider.</text>

  <rect x="390" y="76" width="120" height="38" rx="7" fill="#171626" stroke="#E7E6F0" stroke-width="1.25"/>
  <text x="450" y="100" text-anchor="middle" font-size="12.5" font-weight="500" fill="#E7E6F0">Source</text>
  <path d="M450,114 V132" stroke="#9B98B4" stroke-width="1.5" fill="none" marker-end="url(#aad)"/>

  <rect x="90" y="134" width="720" height="46" rx="8" fill="#171626" stroke="#E7E6F0" stroke-width="1.25"/>
  <text x="450" y="156" text-anchor="middle" font-size="12.5" font-weight="500" fill="#E7E6F0">Shared frontend</text>
  <text x="450" y="171" text-anchor="middle" font-size="10" fill="#9B98B4" font-family="'JetBrains Mono','SF Mono',ui-monospace,Menlo,monospace">parser &#183; stratifier &#183; lowerer &#183; optimizer</text>

  <g stroke="#9B98B4" stroke-width="1.5" fill="none" marker-end="url(#aad)">
    <path d="M135,180 V212"/><path d="M345,180 V212"/><path d="M555,180 V212"/><path d="M765,180 V212"/>
  </g>

  <g>
    <rect x="40" y="214" width="190" height="78" rx="7" fill="#171626" stroke="#E7E6F0" stroke-width="1.25"/>
    <rect x="41.5" y="216" width="3.5" height="74" rx="1.75" fill="#8B83F0"/>
    <text x="60" y="238" font-size="12.5" font-weight="600" fill="#E7E6F0">Deterministic</text>
    <text x="60" y="255" font-size="10.5" fill="#9B98B4">Datalog &amp; recursion</text>
    <rect x="60" y="264" width="52" height="17" rx="8.5" fill="#8B83F0" fill-opacity="0.2"/>
    <text x="86" y="276" text-anchor="middle" font-size="9.5" font-weight="600" fill="#A9A2F5" font-family="'JetBrains Mono','SF Mono',ui-monospace,Menlo,monospace">RIR</text>
  </g>
  <g>
    <rect x="250" y="214" width="190" height="78" rx="7" fill="#171626" stroke="#E7E6F0" stroke-width="1.25"/>
    <rect x="251.5" y="216" width="3.5" height="74" rx="1.75" fill="#A78BFA"/>
    <text x="270" y="238" font-size="12.5" font-weight="600" fill="#E7E6F0">Probabilistic</text>
    <text x="270" y="255" font-size="10.5" fill="#9B98B4">exact &amp; Monte Carlo</text>
    <rect x="270" y="264" width="96" height="17" rx="8.5" fill="#A78BFA" fill-opacity="0.2"/>
    <text x="318" y="276" text-anchor="middle" font-size="9.5" font-weight="600" fill="#C4B5FD" font-family="'JetBrains Mono','SF Mono',ui-monospace,Menlo,monospace">PIR &#8594; XGCF</text>
  </g>
  <g>
    <rect x="460" y="214" width="190" height="78" rx="7" fill="#171626" stroke="#E7E6F0" stroke-width="1.25"/>
    <rect x="461.5" y="216" width="3.5" height="74" rx="1.75" fill="#22D3EE"/>
    <text x="480" y="238" font-size="12.5" font-weight="600" fill="#E7E6F0">Epistemic</text>
    <text x="480" y="255" font-size="10.5" fill="#9B98B4">world views</text>
    <rect x="480" y="264" width="52" height="17" rx="8.5" fill="#22D3EE" fill-opacity="0.2"/>
    <text x="506" y="276" text-anchor="middle" font-size="9.5" font-weight="600" fill="#67E8F9" font-family="'JetBrains Mono','SF Mono',ui-monospace,Menlo,monospace">EIR</text>
  </g>
  <g>
    <rect x="670" y="214" width="190" height="78" rx="7" fill="#171626" stroke="#E7E6F0" stroke-width="1.25"/>
    <rect x="671.5" y="216" width="3.5" height="74" rx="1.75" fill="#FBBF24"/>
    <text x="690" y="238" font-size="12.5" font-weight="600" fill="#E7E6F0">Solver</text>
    <text x="690" y="255" font-size="10.5" fill="#9B98B4">SAT &amp; MaxSAT</text>
    <rect x="690" y="264" width="52" height="17" rx="8.5" fill="#FBBF24" fill-opacity="0.2"/>
    <text x="716" y="276" text-anchor="middle" font-size="9.5" font-weight="600" fill="#FCD34D" font-family="'JetBrains Mono','SF Mono',ui-monospace,Menlo,monospace">SIR</text>
  </g>

  <g stroke="#9B98B4" stroke-width="1.5" fill="none" marker-end="url(#aad)">
    <path d="M135,292 V320"/><path d="M345,292 V320"/><path d="M555,292 V320"/><path d="M765,292 V320"/>
  </g>

  <path d="M90,322 H798 L810,334 V378 H90 Z" fill="#1C1A33" stroke="#8B83F0" stroke-width="1.25"/>
  <rect x="100" y="328" width="104" height="15" rx="7.5" fill="#10B981"/>
  <text x="152" y="338.5" text-anchor="middle" font-size="9" font-weight="600" fill="#0E0E16" letter-spacing="0.5" font-family="'JetBrains Mono','SF Mono',ui-monospace,Menlo,monospace">GPU-RESIDENT</text>
  <text x="450" y="356" text-anchor="middle" font-size="12.5" font-weight="600" fill="#E7E6F0">GPU kernel provider</text>
  <text x="450" y="371" text-anchor="middle" font-size="10" fill="#9B98B4" font-family="'JetBrains Mono','SF Mono',ui-monospace,Menlo,monospace">joins &#183; sort &#183; group-by &#183; circuits &#183; CDCL</text>

  <text x="28" y="394" font-size="10.5" fill="#9B98B4">Neural-symbolic training runs over the deterministic and probabilistic paths, learning rule weights and neural predicates end-to-end.</text>
</svg>
