<!-- xlog diagram: compilation pipeline (dark). Source of truth: crates/xlog-logic/src/compile.rs (parse->normalize->stratify->lower->optimize), crates/xlog-runtime/src/executor (host-side RIR interpreter dispatching CUDA kernels + managing device-resident relations). Executor is HOST control; only kernels + relation state are GPU-resident. -->
<svg xmlns="http://www.w3.org/2000/svg" viewBox="0 0 900 310" font-family="Inter, system-ui, sans-serif">
  <rect width="900" height="310" fill="#0E0E16"/>
  <defs>
    <marker id="ahd" viewBox="0 0 10 10" refX="8" refY="5" markerWidth="7" markerHeight="7" orient="auto-start-reverse">
      <path d="M0,0 L10,5 L0,10 z" fill="#9B98B4"/>
    </marker>
  </defs>

  <text x="28" y="38" font-size="16" font-weight="600" fill="#E7E6F0">Compilation pipeline</text>
  <text x="28" y="56" font-size="11" fill="#9B98B4">The host compiles and orchestrates; CUDA kernels and relation state stay GPU-resident.</text>

  <text x="28" y="94" font-size="9" font-weight="600" letter-spacing="0.6" fill="#6D6A85" font-family="'JetBrains Mono','SF Mono',ui-monospace,Menlo,monospace">HOST</text>

  <g stroke="#9B98B4" stroke-width="1.5" marker-end="url(#ahd)" fill="none">
    <path d="M142,132 H168"/><path d="M288,132 H314"/><path d="M434,132 H460"/><path d="M580,132 H606"/><path d="M726,132 H752"/>
  </g>

  <g font-size="12.5" font-weight="500">
    <g>
      <rect x="24" y="104" width="118" height="56" rx="7" fill="#171626" stroke="#E7E6F0" stroke-width="1.25"/>
      <rect x="25.5" y="106" width="3" height="52" rx="1.5" fill="#8B83F0"/>
      <text x="83" y="129" text-anchor="middle" fill="#E7E6F0">Source</text>
      <text x="83" y="145" text-anchor="middle" font-size="10.5" font-weight="400" fill="#9B98B4" font-family="'JetBrains Mono','SF Mono',ui-monospace,Menlo,monospace">.xlog</text>
    </g>
    <g>
      <rect x="170" y="104" width="118" height="56" rx="7" fill="#171626" stroke="#E7E6F0" stroke-width="1.25"/>
      <rect x="171.5" y="106" width="3" height="52" rx="1.5" fill="#8B83F0"/>
      <text x="229" y="129" text-anchor="middle" fill="#E7E6F0">Parser</text>
      <text x="229" y="145" text-anchor="middle" font-size="10.5" font-weight="400" fill="#9B98B4" font-family="'JetBrains Mono','SF Mono',ui-monospace,Menlo,monospace">&#8594; AST</text>
    </g>
    <g>
      <rect x="316" y="104" width="118" height="56" rx="7" fill="#171626" stroke="#E7E6F0" stroke-width="1.25"/>
      <rect x="317.5" y="106" width="3" height="52" rx="1.5" fill="#8B83F0"/>
      <text x="375" y="129" text-anchor="middle" fill="#E7E6F0">Stratifier</text>
      <text x="375" y="145" text-anchor="middle" font-size="10.5" font-weight="400" fill="#9B98B4" font-family="'JetBrains Mono','SF Mono',ui-monospace,Menlo,monospace">SCC &#8594; strata</text>
    </g>
    <g>
      <rect x="462" y="104" width="118" height="56" rx="7" fill="#171626" stroke="#E7E6F0" stroke-width="1.25"/>
      <rect x="463.5" y="106" width="3" height="52" rx="1.5" fill="#8B83F0"/>
      <text x="521" y="129" text-anchor="middle" fill="#E7E6F0">Lowerer</text>
      <text x="521" y="145" text-anchor="middle" font-size="10.5" font-weight="400" fill="#9B98B4" font-family="'JetBrains Mono','SF Mono',ui-monospace,Menlo,monospace">&#8594; RIR</text>
    </g>
    <g>
      <rect x="608" y="104" width="118" height="56" rx="7" fill="#171626" stroke="#E7E6F0" stroke-width="1.25"/>
      <rect x="609.5" y="106" width="3" height="52" rx="1.5" fill="#8B83F0"/>
      <text x="667" y="129" text-anchor="middle" fill="#E7E6F0">Optimizer</text>
      <text x="667" y="145" text-anchor="middle" font-size="10.5" font-weight="400" fill="#9B98B4" font-family="'JetBrains Mono','SF Mono',ui-monospace,Menlo,monospace">cost plan</text>
    </g>
    <g>
      <rect x="754" y="104" width="118" height="56" rx="7" fill="#171626" stroke="#E7E6F0" stroke-width="1.25"/>
      <rect x="755.5" y="106" width="3" height="52" rx="1.5" fill="#8B83F0"/>
      <text x="813" y="129" text-anchor="middle" fill="#E7E6F0">Executor</text>
      <text x="813" y="145" text-anchor="middle" font-size="10.5" font-weight="400" fill="#9B98B4" font-family="'JetBrains Mono','SF Mono',ui-monospace,Menlo,monospace">xlog-runtime</text>
    </g>
  </g>

  <path d="M170,170 V176 H726 V170" fill="none" stroke="#3A3850" stroke-width="1"/>
  <text x="448" y="190" text-anchor="middle" font-size="10" fill="#9B98B4" font-family="'JetBrains Mono','SF Mono',ui-monospace,Menlo,monospace">xlog-logic</text>

  <path d="M813,160 V206" stroke="#9B98B4" stroke-width="1.5" fill="none" marker-end="url(#ahd)"/>
  <text x="822" y="188" font-size="9.5" fill="#6D6A85" font-family="'JetBrains Mono','SF Mono',ui-monospace,Menlo,monospace">dispatch</text>

  <path d="M520,210 H860 L872,222 V286 H520 Z" fill="#1C1A33" stroke="#8B83F0" stroke-width="1.25"/>
  <rect x="530" y="216" width="104" height="15" rx="7.5" fill="#10B981"/>
  <text x="582" y="226.5" text-anchor="middle" font-size="9" font-weight="600" fill="#0E0E16" letter-spacing="0.5" font-family="'JetBrains Mono','SF Mono',ui-monospace,Menlo,monospace">GPU-RESIDENT</text>

  <path d="M534,238 H672 L684,250 V280 H534 Z" fill="#0E0E16" stroke="#E7E6F0" stroke-width="1.25"/>
  <text x="605" y="258" text-anchor="middle" font-size="12" font-weight="500" fill="#E7E6F0">CUDA kernels</text>
  <text x="605" y="271" text-anchor="middle" font-size="9.5" fill="#9B98B4" font-family="'JetBrains Mono','SF Mono',ui-monospace,Menlo,monospace">joins &#183; sort &#183; circuits</text>
  <rect x="700" y="238" width="158" height="42" rx="6" fill="#0E0E16" stroke="#E7E6F0" stroke-width="1.25"/>
  <text x="779" y="258" text-anchor="middle" font-size="12" font-weight="500" fill="#E7E6F0">Relation store</text>
  <text x="779" y="271" text-anchor="middle" font-size="9.5" fill="#9B98B4" font-family="'JetBrains Mono','SF Mono',ui-monospace,Menlo,monospace">device-resident</text>
  <path d="M685,259 H699" stroke="#9B98B4" stroke-width="1.5" fill="none" marker-start="url(#ahd)" marker-end="url(#ahd)"/>

  <text x="28" y="304" font-size="10.5" fill="#9B98B4">Deterministic path shown; probabilistic, epistemic, and solver paths branch into their own IRs (PIR / EIR / SIR) from the normalized program, not from RIR.</text>
</svg>
