<!-- xlog diagram: knowledge compilation (dark). Source: docs ARCHITECTURE.md "Knowledge Compilation Pipeline" + probabilistic/engines page. PIR -> CNF -> GPU d-DNNF (compile+verify) -> XGCF -> weighted model counting; compile once, evaluate many. -->
<svg xmlns="http://www.w3.org/2000/svg" viewBox="0 0 900 224" font-family="Inter, system-ui, sans-serif">
  <rect width="900" height="224" fill="#0E0E16"/>
  <defs>
    <marker id="akd" viewBox="0 0 10 10" refX="8" refY="5" markerWidth="7" markerHeight="7" orient="auto-start-reverse">
      <path d="M0,0 L10,5 L0,10 z" fill="#9B98B4"/>
    </marker>
  </defs>

  <text x="28" y="38" font-size="16" font-weight="600" fill="#E7E6F0">Exact inference by knowledge compilation</text>
  <text x="28" y="56" font-size="11" fill="#9B98B4">The circuit is compiled once; evaluation and gradients then run many times over the same structure.</text>

  <g>
    <rect x="28" y="96" width="118" height="58" rx="7" fill="#171626" stroke="#E7E6F0" stroke-width="1.25"/>
    <rect x="29.5" y="98" width="3.5" height="54" rx="1.75" fill="#A78BFA"/>
    <text x="87" y="120" text-anchor="middle" font-size="12" font-weight="600" fill="#E7E6F0">PIR</text>
    <text x="87" y="135" text-anchor="middle" font-size="9.5" fill="#9B98B4">provenance</text>
    <path d="M146,125 H166" stroke="#9B98B4" stroke-width="1.5" fill="none" marker-end="url(#akd)"/>

    <rect x="168" y="96" width="118" height="58" rx="7" fill="#171626" stroke="#E7E6F0" stroke-width="1.25"/>
    <rect x="169.5" y="98" width="3.5" height="54" rx="1.75" fill="#A78BFA"/>
    <text x="227" y="120" text-anchor="middle" font-size="12" font-weight="600" fill="#E7E6F0">CNF</text>
    <text x="227" y="135" text-anchor="middle" font-size="9.5" fill="#9B98B4">Tseitin encode</text>
    <path d="M286,125 H306" stroke="#9B98B4" stroke-width="1.5" fill="none" marker-end="url(#akd)"/>

    <rect x="308" y="96" width="150" height="58" rx="7" fill="#171626" stroke="#E7E6F0" stroke-width="1.25"/>
    <rect x="309.5" y="98" width="3.5" height="54" rx="1.75" fill="#A78BFA"/>
    <rect x="322" y="104" width="30" height="13" rx="6.5" fill="#10B981"/>
    <text x="337" y="113.5" text-anchor="middle" font-size="7.5" font-weight="600" fill="#0E0E16" font-family="'JetBrains Mono','SF Mono',ui-monospace,Menlo,monospace">GPU</text>
    <text x="391" y="128" text-anchor="middle" font-size="12" font-weight="600" fill="#E7E6F0">Decision-DNNF</text>
    <text x="391" y="143" text-anchor="middle" font-size="9.5" fill="#9B98B4">compile + CDCL verify</text>
    <path d="M458,125 H478" stroke="#9B98B4" stroke-width="1.5" fill="none" marker-end="url(#akd)"/>

    <path d="M480,96 H598 L610,108 V154 H480 Z" fill="#1C1A33" stroke="#8B83F0" stroke-width="1.25"/>
    <rect x="492" y="104" width="30" height="13" rx="6.5" fill="#10B981"/>
    <text x="507" y="113.5" text-anchor="middle" font-size="7.5" font-weight="600" fill="#0E0E16" font-family="'JetBrains Mono','SF Mono',ui-monospace,Menlo,monospace">GPU</text>
    <text x="545" y="130" text-anchor="middle" font-size="12" font-weight="600" fill="#E7E6F0">XGCF</text>
    <text x="545" y="145" text-anchor="middle" font-size="9.5" fill="#9B98B4">circuit format</text>
    <path d="M610,125 H630" stroke="#9B98B4" stroke-width="1.5" fill="none" marker-end="url(#akd)"/>

    <rect x="632" y="96" width="160" height="58" rx="7" fill="#171626" stroke="#E7E6F0" stroke-width="1.25"/>
    <rect x="633.5" y="98" width="3.5" height="54" rx="1.75" fill="#A78BFA"/>
    <text x="712" y="120" text-anchor="middle" font-size="12" font-weight="600" fill="#E7E6F0">Weighted model count</text>
    <text x="712" y="135" text-anchor="middle" font-size="9.5" fill="#9B98B4" font-family="'JetBrains Mono','SF Mono',ui-monospace,Menlo,monospace">log P(query | evidence)</text>
  </g>

  <path d="M700,154 C650,194 600,194 547,156" stroke="#9B98B4" stroke-width="1.5" fill="none" stroke-dasharray="4 3" marker-end="url(#akd)"/>
  <text x="623" y="192" text-anchor="middle" font-size="9.5" fill="#9B98B4" font-family="'JetBrains Mono','SF Mono',ui-monospace,Menlo,monospace">gradients (backward)</text>

  <path d="M28,168 V174 H610 V168" fill="none" stroke="#3A3850" stroke-width="1"/>
  <text x="319" y="188" text-anchor="middle" font-size="10" fill="#9B98B4" font-family="'JetBrains Mono','SF Mono',ui-monospace,Menlo,monospace">compile once</text>
</svg>
